<?xml version="1.0" encoding="iso-8859-1"?>
<!-- Uploaded to: SVG Repo, www.svgrepo.com, Generator: SVG Repo Mixer Tools -->
<svg fill="#000000" height="800px" width="800px" version="1.1" id="Layer_1" xmlns="http://www.w3.org/2000/svg" xmlns:xlink="http://www.w3.org/1999/xlink" 
	 viewBox="0 0 512 512" xml:space="preserve">
<g>
	<g>
		<g>
			<path d="M42.667,330.667C42.667,395.349,95.296,448,160,448s117.333-52.651,117.333-117.333c0-5.888-4.779-10.667-10.667-10.667
				H53.333C47.445,320,42.667,324.779,42.667,330.667z M255.403,341.333c-5.312,47.936-46.08,85.333-95.403,85.333
				s-90.069-37.397-95.403-85.333H255.403z"/>
			<path d="M447.659,257.344C444.096,116.075,360.32,45.824,192,42.944V32c0-5.888-4.779-10.667-10.667-10.667h-64
				c-5.888,0-10.667,4.779-10.667,10.667v21.333c0,5.888,4.779,10.667,10.667,10.667H128v21.333h-10.667
				c-5.888,0-10.667,4.779-10.667,10.667v83.861C43.477,202.219,0,263.125,0,330.667c0,59.285,32.491,111.019,80.512,138.667h-5.845
				C68.779,469.333,64,474.112,64,480c0,5.888,4.779,10.667,10.667,10.667h170.667c5.888,0,10.667-4.779,10.667-10.667
				c0-5.888-4.779-10.667-10.667-10.667h-5.845C287.509,441.685,320,389.952,320,330.667c0-67.541-43.477-128.427-106.667-150.805
				V96c0-5.888-4.779-10.667-10.667-10.667H192V64.256c156.096,2.709,230.891,64.363,234.325,193.173
				c-35.925,6.912-63.659,46.485-63.659,94.571c0,52.928,33.493,96,74.667,96S512,404.928,512,352
				C512,303.616,483.904,263.872,447.659,257.344z M170.667,42.667v42.667h-21.333v-32c0-5.888-4.779-10.667-10.667-10.667H170.667z
				 M199.616,197.824c58.325,17.365,99.051,71.979,99.051,132.843c0,76.459-62.208,138.667-138.667,138.667
				S21.333,407.125,21.333,330.667c0-60.864,40.725-115.477,99.051-132.843c4.501-1.344,7.616-5.483,7.616-10.219v-80.939h64v80.939
				C192,192.32,195.093,196.48,199.616,197.824z M437.333,426.667C407.936,426.667,384,393.173,384,352s23.936-74.667,53.333-74.667
				s53.333,33.493,53.333,74.667S466.731,426.667,437.333,426.667z"/>
			<path d="M438.656,384.192c-2.645-1.131-11.989-11.627-11.989-32.192c0-5.888-4.779-10.667-10.667-10.667
				c-5.888,0-10.667,4.779-10.667,10.667c0,31.445,16.875,53.333,32,53.333c5.888,0,11.328-4.693,11.328-10.56
				C448.661,388.885,444.544,384.192,438.656,384.192z"/>
		</g>
	</g>
</g>
</svg>